<?xml version="1.0" encoding="UTF-8"?>
<svg xmlns="http://www.w3.org/2000/svg" viewBox="0 0 816.44 229.67">
  <defs>
    <style>
      .cls-1 {
        fill: #eac632;
      }
    </style>
  </defs>
  <g id="Layer_1" data-name="Layer 1">
    <g>
      <path d="M155.61,229.23h-15.19v-30.65h14.73c6.33,0,9.54,3.8,9.54,8.79,0,2.97-1.56,5.03-3.44,6.25,2.02,1.31,3.76,4.02,3.76,6.82,0,5.51-4.08,8.79-9.41,8.79ZM154.33,204.66h-6.97v6.38h6.61c3.12,0,4.59-1.62,4.59-3.19s-1.1-3.19-4.22-3.19ZM154.24,216.86h-6.88v6.3h6.56c3.17,0,4.5-1.49,4.5-2.97,0-1.66-1.15-3.32-4.18-3.32Z"/>
      <path d="M170.34,198.59h22.53v6.3h-15.37c0,2.01-.05,4.02-.05,6.08h13.03v6.12h-12.99v5.81h15.88v6.34h-23.08l.05-30.65Z"/>
      <path d="M219.02,223.5h-12.76l-2.43,5.73h-7.02l13.35-30.73h5.51l12.76,30.73h-7.2l-2.2-5.73ZM208.7,217.3h7.89l-3.9-9.62-3.99,9.62Z"/>
      <path d="M244.89,229.67c-8.95,0-14.41-6.16-14.36-15.74,0-5.03.05-10.32.05-15.34h7.02v14.6c0,6.86,2.98,9.66,7.3,9.66,3.9,0,6.97-3.5,6.97-9.84v-14.43h7.07v14.95c0,9.92-5.37,16.13-14.04,16.13Z"/>
      <path d="M280.08,229.23h-7.25v-24.35h-10.42v-6.3h28.03v6.3h-10.37v24.35Z"/>
      <path d="M310.36,229.23h-7.25v-11.8l-10.46-17.66v-1.18h7.07l7.52,12.68,7.07-12.68h6.56v1.14l-10.51,17.97v11.54Z"/>
      <path d="M359.5,223.5h-12.75l-2.43,5.73h-7.02l13.35-30.73h5.51l12.76,30.73h-7.2l-2.2-5.73ZM349.18,217.3h7.89l-3.9-9.62-3.99,9.62Z"/>
      <path d="M379.82,211.79c0,5.81-.05,11.67-.05,17.44h-6.93v-30.65h4.31l15.46,16.66.05-16.66h6.84v30.65h-3.44l-16.24-17.44Z"/>
      <path d="M416.85,229.23h-11.84v-30.65h13.12c9.04,0,14.73,7.26,14.73,15.3,0,8.74-6.29,15.34-16.01,15.34ZM416.43,204.71h-4.27c0,6.21-.05,12.15-.05,18.36h4.17c6.19,0,9.96-4.2,9.96-9.01s-2.62-9.36-9.82-9.36Z"/>
      <path d="M463.55,229.63c-4.59,0-7.52-1.22-12.25-4.37l2.2-5.95c4.5,2.54,7.34,3.85,9.59,3.85,3.17,0,6.93-1.09,6.93-3.54,0-2.67-4.77-2.97-6.79-3.19-5.23-.61-12.07-1.75-12.07-8.92,0-8.09,7.98-9.7,12.62-9.7,4.27,0,8.12,1.31,12.3,4.15l-2.11,5.55c-3.58-2.23-7.02-3.28-10.19-3.28-4.91,0-6.06,1.88-6.06,3.02,0,2.19,5.28,2.67,6.7,2.67,4.82.48,12.25,1.35,12.25,9.71s-8.12,10.01-13.12,10.01Z"/>
      <path d="M491.49,215.94c-1.06,1.09-2.07,2.19-3.12,3.24v10.05h-7.2l.05-30.65h7.16v11.72c3.72-3.89,7.48-7.87,11.2-11.72h7.29v.96l-10.64,11.32c3.72,5.68,7.62,11.58,11.29,17.31v1.05h-7.85l-8.17-13.29Z"/>
      <path d="M512.23,198.59h7.16v30.65h-7.16v-30.65Z"/>
      <path d="M532.55,211.79c0,5.81-.05,11.67-.05,17.44h-6.93v-30.65h4.31l15.46,16.66.05-16.66h6.84v30.65h-3.44l-16.24-17.44Z"/>
      <path d="M571.73,229.63c-7.98,0-15.09-5.38-15.09-15.83,0-9.75,7.71-15.78,14.96-15.78,5.78,0,9.96,1.97,12.94,4.59l-3.07,6.08c-2.94-2.54-5.51-4.07-9.68-4.07-4.4,0-8.17,3.54-8.17,9.27s3.81,9.36,8.12,9.36,6.97-2.05,9.87-4.59l3.26,5.68c-2.29,2.27-6.29,5.29-13.12,5.29Z"/>
      <path d="M609.22,223.5h-12.75l-2.43,5.73h-7.02l13.35-30.73h5.51l12.76,30.73h-7.2l-2.2-5.73ZM598.89,217.3h7.89l-3.9-9.62-3.99,9.62Z"/>
      <path d="M631.97,217.69h-2.29v11.54h-7.07l-.05-30.65h15.23c6.38,0,9.73,3.67,9.73,9.27,0,4.55-3.72,8.13-7.85,9.27l8.53,10.58v1.53h-6.84l-9.41-11.54ZM636.7,204.88h-7.02v6.25c2.39,0,6.65.04,6.65.04,3.07,0,4.27-1.62,4.27-3.24s-.83-3.06-3.9-3.06Z"/>
      <path d="M652.98,198.59h22.53v6.3h-15.37c0,2.01-.05,4.02-.05,6.08h13.03v6.12h-12.98v5.81h15.88v6.34h-23.08l.05-30.65Z"/>
    </g>
    <text/>
  </g>
  <g id="Layer_2" data-name="Layer 2">
    <g>
      <path d="M104.64,1.31C72.54-2.14,36.93,2.56,4.44.62,1.12-.17-1.44,4.13.91,6.15c2.63,2.26,13.66-.15,18.11,5.16,2.25,2.69,3.01,8.15,3.25,11.61,1.6,23.11-4.12,43.87,3.97,58.94.82-.97,2.04-1.62,3.31-1.62,2.18,0,4.34,0,6.33.98,2.23,1.1,3.5,3.44,4.01,5.78.33,1.52-.06,2.95-1,3.99.38.1.75.24,1.1.45.24.19.49.38.73.56.68-.98,1.78-1.66,3.33-1.66,1.3,0,2.28.48,2.96,1.2.36-.1.75-.17,1.18-.17,4.69,0,5.37,6.18,2.08,8.03,1,.33,2.03.66,3.11.97.67.19,1.95.15,1.81,1.09h-13.9c-1.12,0-6,1.73-7.42,2.27-15.25,5.82-24.45,21.52-16.52,37.18,3.84,7.58,12.62,13,1.97,21.3-3.5,2.73-12.93,4.07-7.43,9.38l67.4.18c2.17-.31,3.23-2.51,2.09-4.39-1.35-2.22-8.12-1.29-11.44-6.65-2.35-3.8-2.3-5.55-.16-9.45,3.92-7.15,11.89-14.23,14.9-22.77.06-.32.16-.61.28-.88.1-.32.21-.63.29-.96.57-.55.82-.69.92-.62-1.11-2.53.12-6.19,3.73-6.19,1.13,0,2.02.37,2.68.94,4.01-2.69,9.73-2.34,8.73-9.25-.39-2.67,1.44-4.58,3.48-5.18-.07-.35-.14-.7-.21-1.06,19.83-9,41.59-19,48.02-41.84,9.48-33.62-15.94-58.73-47.97-62.18ZM98.23,101.79c.65,2.21-.31,4.96-2.9,5.54-.52,1.5-1.81,2.71-3.87,2.71s-3.22-1.09-3.78-2.49c-2.28-.36-4.4-2.35-3.71-5.26.83-3.51,2.79-6.23,4.8-9.15,2.27-3.3,3.12-6,3.29-10.02.32-7.59-.57-15.27-2.35-22.64-1.96-8.1-4.67-16.31-9.64-23.1-5.01-6.85-11.63-12.42-17.54-18.47-2.9-2.97-.19-7.13,2.96-7.33-.2-.2-.39-.39-.59-.59,17.07-3.05,41.23-1.4,51.59,14.65,15.34,23.78,1.29,58.93-18.26,76.14Z"/>
      <g>
        <path d="M317.8,110.35h-70c.1,20.7,6.51,45.42,30.62,47.88,9.39.96,18-.53,25.7-6.06,3.3-2.36,8.16-9.91,11.65-8.35,6.71,2.99-.87,10.9-3.94,14.06-40.8,41.93-105.34-.19-83.77-58.77,18.81-51.1,91.25-46.59,89.75,11.25ZM294.8,101.35c.82-15.74-7.12-29.58-24.55-28.05-13.86,1.22-19.37,16.19-21.45,28.05h46Z"/>
        <g>
          <path d="M604.67,161.47c.94,1.49.3,4.7-1.56,5.69-1.73.92-28.01,6.86-30.94,7.11-9.16.79-4.19-8.5-5.38-14.91l-14.12,9.37c-86.63,32.96-98.75-102.58-14.37-105.36,10.65-.35,18.71,2.8,28.49,5.98-.33-8.8.45-17.74.05-26.54-.2-4.25-.55-13.11-1.27-16.73-1.8-8.95-10.22-5.7-13.52-8.97-2.41-2.39-1.33-5.15,1.74-6.27,10.16-3.71,24-4.5,34.55-8.09,2,.31,2.72,3.22,2.52,5.05,1.39,48.91-2.94,97.97.37,146.62-.44,6.16,12.5,5.58,13.44,7.06ZM540.46,72.74c-28.62.05-34.97,29.86-32.66,53.1,2.98,29.96,37.55,45.7,58.79,22.8-.86-18.93,1.87-40.11.19-58.78-.16-1.73-.82-6.2-1.5-7.5-2.77-5.26-19.07-9.64-24.81-9.63Z"/>
          <g>
            <path d="M699.09,160.06c2.82,3.31,10.71,3.17,14.7,2.29-.29,1.55.54,6.13-.12,6.89-.7.79-18.22,5.07-20.43,5.14-9.89.3-15.76-5.2-18.95-14.01-16.34,17.95-59.68,21.75-60.57-10.51-.8-29.27,40.36-31.18,60.13-40.12-.27-12.79,2.96-33.52-14.68-35.28-21.78-2.17-12.26,19.75-24.42,27.35-8.23,5.14-17.64-.04-15.51-10.52,5.68-27.91,66.73-40.09,76.27-10.16,5.95,18.65-.52,49.84,1.24,70.76.19,2.27.91,6.49,2.34,8.17ZM674.79,118.35c-15.05,4.11-43.5,10.34-35.47,31.97,5.52,14.87,33.14,9,34.52-1.42.7-5.25-.29-12.47-.09-18.09.14-3.98,1.85-8.18,1.04-12.46Z"/>
            <path d="M744.8,110.35c.49,16.58,2.35,35.42,18.64,43.86,13.03,6.75,28.05,6.35,39.83-2.88,2.74-2.14,6.96-9.1,10.5-7.51,4.95,2.23,1.97,6.48-.45,9.55-38.61,49.08-113.32,5.61-88.01-56.01,17.4-42.34,79.15-46.75,89.03-1.07.45,2.07,2.69,14.05-.05,14.05h-69.5ZM745.8,101.35h47c.11-38.64-44.76-36.85-47,0Z"/>
          </g>
        </g>
        <path d="M386.8,171.35h-56.99c-1.44-8.66,2.31-5.12,7.99-7.51s5.68-7.43,6.05-12.95c.99-14.87,1.76-46.87-.13-60.96-1.55-11.55-11.36-8.41-13.46-11.54-.96-1.43-.84-4.42.53-5.56,1.45-1.22,35.4-9.54,36.94-8.43,1.2,7.31-1.08,15.4.57,22.94,8.65-7.67,13.73-23.06,27.02-24.02,20.6-1.48,21.68,28.43,5.34,27.47-9.54-.56-13.13-10.69-24.35-2.45-5.35,3.94-7.95,7.91-8.53,14.56-1.01,11.51-.68,30.15-.03,41.99.35,6.29,0,15.2,6.04,17.96,6.77,3.1,14.94-1.27,13.01,8.5Z"/>
        <g>
          <path d="M471.74,165.4c.21.22.26,5.45-.06,5.84-.15.18-3.81,1.01-4.48,1.02-4.43.07-10.41-.92-14.87-.96-11.51-.08-23.04.16-34.54.05-2.19-9.31,10.23-4.99,13.26-11.24,2.23-4.6.51-7.68.76-11.25,1.11-16.26,3-43.02.73-58.74-.32-2.18-1.15-5.67-2.78-7.22-3.66-3.47-12.06-1.97-11.93-6.94.14-5.29,7.8-4.08,12.01-5.07,6.5-1.53,16.42-5.01,22.6-5.48,1.35-.1,3.05-.38,3.93.89,1.7,2.45.5,52.03.48,59.6-.03,9.85-2.13,21.02.04,30.88,2.42,11.02,12.79,6.42,14.86,8.62Z"/>
          <circle cx="442.6" cy="33.96" r="14.65"/>
        </g>
        <g>
          <path d="M218.8,165.35c.05,2.49.72,5.7-2.5,6-6.17-1.32-49.73,1.85-51.39-.11-.33-.39-.27-5.62-.06-5.84.74-.78,9.48.13,12.43-4.07,1.6-2.28,2.33-7.59,2.55-10.45,1.13-14.6.62-35.23,0-50.1-.14-3.36-.67-13.98-1.96-16.01-3.83-6.01-15.01-1.91-11.94-11.3,10.15-1.48,24.77-7.65,34.51-8.08,1.13-.05,2.17-.2,2.91.9l-.44,87.44c1.23,10.37,6.51,10.94,15.89,11.62Z"/>
          <circle cx="189.51" cy="33.96" r="14.54"/>
        </g>
      </g>
    </g>
  </g>
  <g id="Layer_4" data-name="Layer 4">
    <path class="cls-1" d="M65.32,7s46.24,37.56,25.21,100.98c.4-.45,3.63-4.05,3.63-4.05,0,0,10.25-35.5,12.18-36.89s2.64-.32,2.64-.32l-10.54,35.18s3.89,1.08,6.85,3.36c1.95,2.27,3.97,12.19-9.79,22.41-4.58,6.04-1.12,27.12-6.42,27.05s-5.81-14.26-2.5-27.58c.26.29-3.42,7.5-7.7,13.32-4.28,5.81-8.55,11.19-10.49,14.26s-25.77,26.18-47.01-4.22C.15,120.09,30.37,101.19,40.76,101.22c10.39.03,14.17,0,14.17,0,0,0-33.62-9.26-33.5-33.93.13-24.67,17.25-57.16,43.88-60.28Z"/>
  </g>
</svg>